<svg xmlns="http://www.w3.org/2000/svg" xmlns:xlink="http://www.w3.org/1999/xlink" width="786" height="900" fill="none" xmlns:v="https://vecta.io/nano"><g filter="url(#A)"><ellipse cx="393.288" cy="545.731" rx="369.477" ry="345.663" fill="#f44"/><path d="M755.266 545.731c0 186.299-161.584 338.163-361.978 338.163S31.311 732.03 31.311 545.731s161.584-338.163 361.977-338.163 361.978 151.864 361.978 338.163z" stroke="#fff" stroke-width="15"/></g><g filter="url(#B)"><path d="M498.784 49.308c19.577 4.464 40.448 15.687 62.046 36.58-17.692 5.19-32.15 12.791-42.641 23.501-11.529 11.769-18.047 27.071-19.01 46.397l-.205 4.11 3.976-1.062c62.392-16.679 127.04-10.265 178.371 6.243 25.658 8.252 47.901 18.998 64.808 30.56 13.858 9.476 23.906 19.345 29.447 28.652-21.771-6.435-45.797-5.168-71.024-.423-21.279 4.002-43.711 10.546-66.6 17.224l-21.475 6.199c-60.946 17.218-123.971 30.25-181.39-1.607l-4.459-2.474.003 5.099c.019 29.967-6.438 53.033-16.917 70.865s-25.081 30.602-41.625 39.821c-31.446 17.522-69.732 22.123-99.451 24.071l6.768-14.526 5.272-11.22c4.658-10.141 8.957-20.437 11.622-30.802 5.376-20.916 4.084-42.176-13.823-63.263l-2.15-2.532-2.301 2.396c-31.53 32.838-59.865 53.877-99.988 60.957-38.919 6.868-89.315.673-164.954-21.563 8.876-4.074 19.079-10.158 30.202-17.157l14.973-9.549 34.295-21.463c35.773-21.332 75.908-40.638 115.023-40.777l.99-5.828c-54.181-19.156-98.815-17.297-142.652-12.815 13.236-16.687 36.852-42.73 71.513-60.254 38.658-19.545 91.279-28.61 159.052-1.766l10.453 4.141-7.001-8.798-67.377-84.668 68.768-39.331 54.906 122.129 2.318 5.156 2.97-4.809c15.622-25.288 43.902-57.672 79.437-72.153 17.7-7.212 37.165-9.974 57.83-5.261z" fill="#21e521" stroke="#fff" stroke-width="6"/></g><g fill="#fff"><path d="M235.82 708.44c0 2.44-.56 4.68-1.68 6.72-1.12 2-2.84 3.62-5.16 4.86s-5.2 1.86-8.64 1.86h-6.36V737h-10.26v-42.12h16.62c3.36 0 6.2.58 8.52 1.74s4.06 2.76 5.22 4.8 1.74 4.38 1.74 7.02zm-16.26 5.28c1.96 0 3.42-.46 4.38-1.38s1.44-2.22 1.44-3.9-.48-2.98-1.44-3.9-2.42-1.38-4.38-1.38h-5.58v10.56h5.58zm36.841 23.76c-3.28 0-6.24-.7-8.88-2.1-2.6-1.4-4.66-3.4-6.18-6-1.48-2.6-2.22-5.64-2.22-9.12 0-3.44.76-6.46 2.28-9.06 1.52-2.64 3.6-4.66 6.24-6.06s5.6-2.1 8.88-2.1 6.24.7 8.88 2.1 4.72 3.42 6.24 6.06c1.52 2.6 2.28 5.62 2.28 9.06s-.78 6.48-2.34 9.12c-1.52 2.6-3.62 4.6-6.3 6-2.64 1.4-5.6 2.1-8.88 2.1zm0-8.88c1.96 0 3.62-.72 4.98-2.16 1.4-1.44 2.1-3.5 2.1-6.18s-.68-4.74-2.04-6.18c-1.32-1.44-2.96-2.16-4.92-2.16-2 0-3.66.72-4.98 2.16-1.32 1.4-1.98 3.46-1.98 6.18 0 2.68.64 4.74 1.92 6.18 1.32 1.44 2.96 2.16 4.92 2.16zm65.684-25.44c4.16 0 7.46 1.26 9.9 3.78 2.48 2.52 3.72 6.02 3.72 10.5V737h-10.2v-18.18c0-2.16-.58-3.82-1.74-4.98-1.12-1.2-2.68-1.8-4.68-1.8s-3.58.6-4.74 1.8c-1.12 1.16-1.68 2.82-1.68 4.98V737h-10.2v-18.18c0-2.16-.58-3.82-1.74-4.98-1.12-1.2-2.68-1.8-4.68-1.8s-3.58.6-4.74 1.8c-1.12 1.16-1.68 2.82-1.68 4.98V737h-10.26v-33.48h10.26v4.2c1.04-1.4 2.4-2.5 4.08-3.3 1.68-.84 3.58-1.26 5.7-1.26 2.52 0 4.76.54 6.72 1.62a11.56 11.56 0 0 1 4.68 4.62c1.16-1.84 2.74-3.34 4.74-4.5s4.18-1.74 6.54-1.74zm36.035 34.32c-3.28 0-6.24-.7-8.88-2.1-2.6-1.4-4.66-3.4-6.18-6-1.48-2.6-2.22-5.64-2.22-9.12 0-3.44.76-6.46 2.28-9.06 1.52-2.64 3.6-4.66 6.24-6.06s5.6-2.1 8.88-2.1 6.24.7 8.88 2.1 4.72 3.42 6.24 6.06c1.52 2.6 2.28 5.62 2.28 9.06s-.78 6.48-2.34 9.12c-1.52 2.6-3.62 4.6-6.3 6-2.64 1.4-5.6 2.1-8.88 2.1zm0-8.88c1.96 0 3.62-.72 4.98-2.16 1.4-1.44 2.1-3.5 2.1-6.18s-.68-4.74-2.04-6.18c-1.32-1.44-2.96-2.16-4.92-2.16-2 0-3.66.72-4.98 2.16-1.32 1.4-1.98 3.46-1.98 6.18 0 2.68.64 4.74 1.92 6.18 1.32 1.44 2.96 2.16 4.92 2.16zm50.918 8.82c-3.08 0-5.84-.5-8.28-1.5s-4.4-2.48-5.88-4.44c-1.44-1.96-2.2-4.32-2.28-7.08h10.92c.16 1.56.7 2.76 1.62 3.6.92.8 2.12 1.2 3.6 1.2 1.52 0 2.72-.34 3.6-1.02.88-.72 1.32-1.7 1.32-2.94 0-1.04-.36-1.9-1.08-2.58-.68-.68-1.54-1.24-2.58-1.68-1-.44-2.44-.94-4.32-1.5-2.72-.84-4.94-1.68-6.66-2.52s-3.2-2.08-4.44-3.72-1.86-3.78-1.86-6.42c0-3.92 1.42-6.98 4.26-9.18 2.84-2.24 6.54-3.36 11.1-3.36 4.64 0 8.38 1.12 11.22 3.36 2.84 2.2 4.36 5.28 4.56 9.24h-11.1c-.08-1.36-.58-2.42-1.5-3.18-.92-.8-2.1-1.2-3.54-1.2-1.24 0-2.24.34-3 1.02-.76.64-1.14 1.58-1.14 2.82 0 1.36.64 2.42 1.92 3.18s3.28 1.58 6 2.46c2.72.92 4.92 1.8 6.6 2.64 1.72.84 3.2 2.06 4.44 3.66s1.86 3.66 1.86 6.18c0 2.4-.62 4.58-1.86 6.54-1.2 1.96-2.96 3.52-5.28 4.68s-5.06 1.74-8.22 1.74zm36.914.06c-3.28 0-6.24-.7-8.88-2.1-2.6-1.4-4.66-3.4-6.18-6-1.48-2.6-2.22-5.64-2.22-9.12 0-3.44.76-6.46 2.28-9.06 1.52-2.64 3.6-4.66 6.24-6.06s5.6-2.1 8.88-2.1 6.24.7 8.88 2.1 4.72 3.42 6.24 6.06c1.52 2.6 2.28 5.62 2.28 9.06s-.78 6.48-2.34 9.12c-1.52 2.6-3.62 4.6-6.3 6-2.64 1.4-5.6 2.1-8.88 2.1zm0-8.88c1.96 0 3.62-.72 4.98-2.16 1.4-1.44 2.1-3.5 2.1-6.18s-.68-4.74-2.04-6.18c-1.32-1.44-2.96-2.16-4.92-2.16-2 0-3.66.72-4.98 2.16-1.32 1.4-1.98 3.46-1.98 6.18 0 2.68.64 4.74 1.92 6.18 1.32 1.44 2.96 2.16 4.92 2.16zm56.023-25.08V737h-10.26v-4.56c-1.04 1.48-2.46 2.68-4.26 3.6-1.76.88-3.72 1.32-5.88 1.32-2.56 0-4.82-.56-6.78-1.68-1.96-1.16-3.48-2.82-4.56-4.98s-1.62-4.7-1.62-7.62v-19.56h10.2v18.18c0 2.24.58 3.98 1.74 5.22s2.72 1.86 4.68 1.86c2 0 3.58-.62 4.74-1.86s1.74-2.98 1.74-5.22v-18.18h10.26zm27.77-.36c3.92 0 7.04 1.28 9.36 3.84 2.36 2.52 3.54 6 3.54 10.44V737h-10.2v-18.18c0-2.24-.58-3.98-1.74-5.22s-2.72-1.86-4.68-1.86-3.52.62-4.68 1.86-1.74 2.98-1.74 5.22V737h-10.26v-33.48h10.26v4.44c1.04-1.48 2.44-2.64 4.2-3.48 1.76-.88 3.74-1.32 5.94-1.32zm17.99 17.04c0-3.44.64-6.46 1.92-9.06 1.32-2.6 3.1-4.6 5.34-6s4.74-2.1 7.5-2.1c2.2 0 4.2.46 6 1.38 1.84.92 3.28 2.16 4.32 3.72V692.6h10.26V737h-10.26v-4.8c-.96 1.6-2.34 2.88-4.14 3.84-1.76.96-3.82 1.44-6.18 1.44-2.76 0-5.26-.7-7.5-2.1-2.24-1.44-4.02-3.46-5.34-6.06-1.28-2.64-1.92-5.68-1.92-9.12zm25.08.06c0-2.56-.72-4.58-2.16-6.06-1.4-1.48-3.12-2.22-5.16-2.22s-3.78.74-5.22 2.22c-1.4 1.44-2.1 3.44-2.1 6s.7 4.6 2.1 6.12c1.44 1.48 3.18 2.22 5.22 2.22s3.76-.74 5.16-2.22c1.44-1.48 2.16-3.5 2.16-6.06zM63 547.824h14.191v42.569H63z"/><use xlink:href="#C"/><use xlink:href="#C" x="46.831"/><path d="M244.65 547.824h14.191v42.569H244.65z"/><use xlink:href="#C" x="140.495"/><use xlink:href="#C" x="234.158"/><use xlink:href="#C" x="280.99"/><path d="M478.809 547.824H493v42.569h-14.191zM526 548h14.191v42.569H526zm-416.168-42.745h14.191v85.138h-14.191zm228.482 0h14.191v85.138h-14.191zM573 506h14.191v85.138H573zm47 40h14.191v42.569H620z"/><use xlink:href="#C" x="515.845" y="-1.824"/><use xlink:href="#C" x="562.676" y="-1.824"/><path d="M568.95 475v-2.075h4.7V491h-2.3v-16h-2.4zm20.133-.1h-8.775v5.7c.383-.533.95-.967 1.7-1.3.75-.35 1.558-.525 2.425-.525 1.383 0 2.508.292 3.375.875.866.567 1.483 1.308 1.85 2.225.383.9.575 1.858.575 2.875 0 1.2-.225 2.275-.675 3.225s-1.142 1.7-2.075 2.25c-.917.55-2.059.825-3.425.825-1.75 0-3.167-.45-4.25-1.35s-1.742-2.1-1.975-3.6h2.225c.216.95.675 1.692 1.375 2.225s1.583.8 2.65.8c1.316 0 2.308-.392 2.975-1.175.666-.8 1-1.85 1-3.15s-.334-2.3-1-3c-.667-.717-1.65-1.075-2.95-1.075-.884 0-1.659.217-2.325.65a3.63 3.63 0 0 0-1.425 1.725h-2.15v-10.2h10.875v2zm-255.133.1v-2.075h4.7V491h-2.3v-16h-2.4zm8.608 6.775c0-2.867.466-5.1 1.4-6.7.933-1.617 2.566-2.425 4.9-2.425 2.316 0 3.941.808 4.875 2.425.933 1.6 1.4 3.833 1.4 6.7 0 2.917-.467 5.183-1.4 6.8S351.174 491 348.858 491c-2.334 0-3.967-.808-4.9-2.425s-1.4-3.883-1.4-6.8zm10.325 0c0-1.45-.1-2.675-.3-3.675-.184-1.017-.575-1.833-1.175-2.45-.584-.617-1.434-.925-2.55-.925-1.134 0-2 .308-2.6.925-.584.617-.975 1.433-1.175 2.45-.184 1-.275 2.225-.275 3.675 0 1.5.091 2.758.275 3.775.2 1.017.591 1.833 1.175 2.45.6.617 1.466.925 2.6.925 1.116 0 1.966-.308 2.55-.925.6-.617.991-1.433 1.175-2.45.2-1.017.3-2.275.3-3.775zM122.226 476.9h-8.775v5.7c.383-.533.95-.967 1.7-1.3.75-.35 1.558-.525 2.425-.525 1.383 0 2.508.292 3.375.875.867.567 1.483 1.308 1.85 2.225.383.9.575 1.858.575 2.875 0 1.2-.225 2.275-.675 3.225s-1.142 1.7-2.075 2.25c-.917.55-2.058.825-3.425.825-1.75 0-3.167-.45-4.25-1.35s-1.742-2.1-1.975-3.6h2.225c.217.95.675 1.692 1.375 2.225s1.583.8 2.65.8c1.317 0 2.308-.392 2.975-1.175.667-.8 1-1.85 1-3.15s-.333-2.3-1-3c-.667-.717-1.65-1.075-2.95-1.075-.883 0-1.658.217-2.325.65a3.63 3.63 0 0 0-1.425 1.725h-2.15v-10.2h10.875v2zM394 607l20.785 36h-41.57L394 607z"/></g><defs><filter id="A" x="19.811" y="200.068" width="746.955" height="699.326" filterUnits="userSpaceOnUse" color-interpolation-filters="sRGB"><feFlood flood-opacity="0" result="A"/><feColorMatrix in="SourceAlpha" values="0 0 0 0 0 0 0 0 0 0 0 0 0 0 0 0 0 0 127 0" result="B"/><feOffset dy="4"/><feGaussianBlur stdDeviation="2"/><feComposite in2="B" operator="out"/><feColorMatrix values="0 0 0 0 0 0 0 0 0 0 0 0 0 0 0 0 0 0 0.25 0"/><feBlend in2="A"/><feBlend in="SourceGraphic"/></filter><filter id="B" x="0" y="0" width="785.438" height="394.362" filterUnits="userSpaceOnUse" color-interpolation-filters="sRGB"><feFlood flood-opacity="0" result="A"/><feColorMatrix in="SourceAlpha" values="0 0 0 0 0 0 0 0 0 0 0 0 0 0 0 0 0 0 127 0" result="B"/><feOffset dy="4"/><feGaussianBlur stdDeviation="2"/><feComposite in2="B" operator="out"/><feColorMatrix values="0 0 0 0 0 0 0 0 0 0 0 0 0 0 0 0 0 0 0.25 0"/><feBlend in2="A"/><feBlend in="SourceGraphic"/></filter><path id="C" d="M150.987 547.824h14.191v42.569h-14.191z"/></defs></svg>