<svg xmlns="http://www.w3.org/2000/svg" xmlns:xlink="http://www.w3.org/1999/xlink" width="56" height="56" viewBox="0 0 56 56"><title>Airplane</title><defs><rect id="airplane-a" width="46" height="52" rx="18"></rect><rect id="airplane-a" width="46" height="52" rx="18"></rect></defs><g fill="none" fill-rule="evenodd"><g transform="translate(5 2)" fill="#FFFFFF"><mask id="airplane-b" fill="#FFFFFF"><use xlink:href="#airplane-a" fill="#FFFFFF"></use></mask><g fill-rule="nonzero" mask="url(#airplane-b)" fill="#FFFFFF"><path d="M43 41.902a1.5 1.5 0 0 1 .126-.601 4.5 4.5 0 0 0-5.165-6.18 1.5 1.5 0 0 1-1.579-.608 3.5 3.5 0 0 0-6.312 2.69A1.5 1.5 0 0 1 28.563 39L28.5 39a2.5 2.5 0 1 0 0 5H43v-2.098zm3 3.598a1.5 1.5 0 0 1-1.5 1.5h-16a5.5 5.5 0 0 1-1.493-10.795 6.5 6.5 0 0 1 11.221-4.166A7.5 7.5 0 0 1 46 42.197V45.5zM19.49 20.967l-2.61 6.122a1.5 1.5 0 0 1-.73.763l-25.167 12.1a1.5 1.5 0 0 1-1.3-2.704l24.659-11.855 2.778-6.515a1.5 1.5 0 0 1 1.38-.911h4.033a1.5 1.5 0 0 1 1.5 1.5v8.866a1.5 1.5 0 0 1-.274.865l-.266.376-.801 1.13a2068.12 2068.12 0 0 1-3.255 4.568A4454.793 4454.793 0 0 1 6.016 53.945a1.5 1.5 0 1 1-2.432-1.757 4451.86 4451.86 0 0 0 13.412-18.66 2065.141 2065.141 0 0 0 4.037-5.672v-6.89h-1.542z" fill="#FFFFFF"></path></g></g><path fill="#FFFFFF" fill-rule="nonzero" d="M5.5 16v-3h44v3zM25.5 10a1.5 1.5 0 0 1 0-3h5a1.5 1.5 0 0 1 0 3h-5z"></path><path fill="#FFFFFF" fill-rule="nonzero" d="M24 3C14.059 3 6 11.059 6 21v14c0 9.941 8.059 18 18 18h8c9.941 0 18-8.059 18-18V21c0-9.941-8.059-18-18-18h-8zm0-3h8c11.598 0 21 9.402 21 21v14c0 11.598-9.402 21-21 21h-8C12.402 56 3 46.598 3 35V21C3 9.402 12.402 0 24 0z"></path><path d="M0 0h56v56H0z" fill="none"></path></g></svg>