<svg xmlns:xlink="http://www.w3.org/1999/xlink" xmlns="http://www.w3.org/2000/svg" width="56" height="56" viewBox="0 0 56 56"><title>Ocean waves</title><g fill="none" fill-rule="evenodd"><path fill="#FFFFFF" fill-rule="nonzero" d="M13.525 31.883a1.5 1.5 0 0 1-2.9-.766C12.695 23.283 19.612 18 28 18s15.304 5.283 17.375 13.117a1.5 1.5 0 0 1-2.9.766C40.753 25.371 35.03 21 28 21s-12.753 4.37-14.475 10.883zM5.106 22.789a2 2 0 1 0 1.788-3.578l-4-2a2 2 0 1 0-1.788 3.578l4 2zM53.106 17.211a2 2 0 0 1 1.788 3.578l-4 2a2 2 0 0 1-1.788-3.578l4-2zM26 4a2 2 0 1 1 4 0v4a2 2 0 1 1-4 0V4zm0 35a1.5 1.5 0 0 1 0-3h27a1.5 1.5 0 0 1 0 3H26zm.5 4a1.5 1.5 0 0 1 0 3h-22a1.5 1.5 0 0 1 0-3h22zm7 3a1.5 1.5 0 0 1 0-3h21a1.5 1.5 0 0 1 0 3h-21zm12 7a1.5 1.5 0 0 1 0-3h5a1.5 1.5 0 0 1 0 3h-5zm-43 0a1.5 1.5 0 0 1 0-3h36a1.5 1.5 0 0 1 0 3h-36zm-1-14a1.5 1.5 0 0 1 0-3h17a1.5 1.5 0 0 1 0 3h-17z"></path><path d="M0 0h56v56H0z" fill="none"></path></g></svg>