<svg xmlns:xlink="http://www.w3.org/1999/xlink" xmlns="http://www.w3.org/2000/svg" width="56" height="56" viewBox="0 0 56 56"><title>Space engine</title><g fill="none" fill-rule="evenodd"><path fill="#FFFFFF" fill-rule="nonzero" d="M13 9.23v9.27a1.5 1.5 0 0 1-.83 1.342C10.985 20.435 10 21.575 10 22.5v11c0 .925.984 2.065 2.17 2.658A1.5 1.5 0 0 1 13 37.5v9.27l4.793-.684 10.646-10.647A1.5 1.5 0 0 1 29.5 35h10.63c3.989.004 5.253-.076 6.529-.5C49.763 33.464 53 30.431 53 28c0-2.432-3.237-5.465-6.341-6.5-1.276-.424-2.54-.504-6.528-.5H29.5a1.5 1.5 0 0 1-1.06-.44L17.792 9.915 13 9.23zm-3 29.134c-1.705-1.12-3-2.889-3-4.864v-11c0-1.975 1.295-3.744 3-4.864V7.5a1.5 1.5 0 0 1 1.712-1.485l7 1a1.5 1.5 0 0 1 .849.424L30.12 18h10.007c4.362-.004 5.768.084 7.48.655C51.798 20.05 56 23.988 56 28c0 4.012-4.202 7.949-8.392 9.345-1.712.57-3.118.659-7.48.655H30.121l-10.56 10.56a1.5 1.5 0 0 1-.849.425l-7 1A1.5 1.5 0 0 1 10 48.5V38.364z"></path><path fill="#FFFFFF" fill-rule="nonzero" d="M33.554 18.001a1.5 1.5 0 0 1-.108 2.998c-5.904-.212-9.977.414-12.151 1.773a1.5 1.5 0 0 1-1.59-2.544c2.804-1.752 7.397-2.46 13.849-2.227zM33.554 38A1.5 1.5 0 1 0 33.446 35c-5.904.213-9.977-.414-12.151-1.773a1.5 1.5 0 1 0-1.59 2.544c2.804 1.753 7.397 2.46 13.849 2.227zM46.39 26.509a1.5 1.5 0 0 1 2.22-2.018C49.524 25.496 50 26.687 50 28c0 1.313-.476 2.504-1.39 3.509a1.5 1.5 0 0 1-2.22-2.018c.42-.462.61-.937.61-1.491s-.19-1.03-.61-1.491zM3 33.511l4-1.142V23.63L3 22.49V33.51zM1.912 19.058l7 2A1.5 1.5 0 0 1 10 22.5v11a1.5 1.5 0 0 1-1.088 1.442l-7 2A1.5 1.5 0 0 1 0 35.5v-15a1.5 1.5 0 0 1 1.912-1.442zM23.5 3a1.5 1.5 0 0 1 0-3h7a1.5 1.5 0 0 1 0 3h-7zm16 7a1.5 1.5 0 0 1 0-3h5a1.5 1.5 0 0 1 0 3h-5zM23.5 53a1.5 1.5 0 0 0 0 3h7a1.5 1.5 0 0 0 0-3h-7zM39.5 46a1.5 1.5 0 0 0 0 3h5a1.5 1.5 0 0 0 0-3h-5z"></path><path d="M0 0h56v56H0z" fill="none"></path></g></svg>