<svg xmlns:xlink="http://www.w3.org/1999/xlink" xmlns="http://www.w3.org/2000/svg" width="14" height="14" viewBox="0 0 14 14"><g fill="none" fill-rule="evenodd"><path fill="#FFFFFF" fill-rule="nonzero" d="M1 8a1 1 0 1 1 0-2C2.63 6 4.063 7.081 4.511 8.65L5 10.36l2.077-7.269a2 2 0 0 1 3.846 0l.49 1.712C11.614 5.512 12.262 6 13 6a1 1 0 0 1 0 2 3.651 3.651 0 0 1-3.511-2.648L9 3.641 6.923 10.91a2 2 0 0 1-3.846 0l-.49-1.712A1.651 1.651 0 0 0 1 8z"></path><path d="M0 0h14v14H0z" fill="none"></path></g></svg>