<svg xmlns:xlink="http://www.w3.org/1999/xlink" xmlns="http://www.w3.org/2000/svg" width="40" height="40" viewBox="0 0 40 40"><g fill="none" fill-rule="evenodd"><path fill="#FFFFFF" fill-rule="nonzero" d="M30.4348573,28.8249931 L31.5651427,27.1750069 C32.2825685,27.666463 33.2372433,28 34,28 C36.2195246,28 38,26.2395819 38,24.0407717 C38,22.0392473 36.644192,20.3168521 34.8203242,19.9837259 L35.1796758,18.0162741 C37.9779593,18.5273756 40,21.0961415 40,24.0407717 C40,27.3492552 37.319054,30 34,30 C32.8062302,30 31.4672115,29.5321839 30.4348573,28.8249931 Z"></path><path fill="#FFFFFF" fill-rule="nonzero" d="M.0190094498 16C.0190094498 14.895422.914446835 13.9999846 2.01902531 13.9999846L34.0201851 14C35.1304537 14.0031607 36.0233215 14.9011374 36.0201769 16.0057043 36.0109178 19.2497893 35.3056791 22.3906654 33.9079594 25.4190582 32.5839378 28.2877716 30.6151667 31.2347978 28.0047982 34.2639863 27.0549727 35.3662063 25.6721336 36.0000094 24.217121 36.0000094L18.0101347 36 11.7605016 36C10.3350468 36 8.97735974 35.3915877 8.02865929 34.3276723 5.27231962 31.2365482 3.28716119 28.2589488 2.07836462 25.388057.830636994 22.4247039.144354368 19.3188809.0204676323 16.0763587.0192525245 16.0381886.0192525245 16.0381886.0190094498 16zM3.92163538 24.611943C5.03764438 27.2624644 6.90250444 30.0596246 9.52139187 32.9966015 10.0906127 33.6349513 10.9052278 34 11.7605016 34L18.0101362 34 24.2171225 34.0000094C25.0901303 34.0000094 25.9198347 33.6197271 26.4897308 32.9583942 28.985022 30.0627466 30.851408 27.2689792 32.0920406 24.5809418 33.3702042 21.8115873 34.0117529 18.9543636 34.0201846 15.9999846L2.01900946 15.9999846C2.13372257 19.0024189 2.76761425 21.8711428 3.92163538 24.611943zM17.2928932.292893219C17.6834175-.0976310729 18.3165825-.0976310729 18.7071068.292893219 19.0976311.683417511 19.0976311 1.31658249 18.7071068 1.70710678 18.213657 2.20055655 18 2.62787058 18 3 18 3.57228574 18.1874079 3.97833627 18.8320503 4.9452998 19.6874079 6.22833627 20 6.90561907 20 8 20 8.96120391 19.5469904 9.86722321 18.7071068 10.7071068 18.3165825 11.0976311 17.6834175 11.0976311 17.2928932 10.7071068 16.9023689 10.3165825 16.9023689 9.68341751 17.2928932 9.29289322 17.786343 8.79944345 18 8.37212942 18 8 18 7.42771426 17.8125921 7.02166373 17.1679497 6.0547002 16.3125921 4.77166373 16 4.09438093 16 3 16 2.03879609 16.4530096 1.13277679 17.2928932.292893219zM23.2928932.292893219C23.6834175-.0976310729 24.3165825-.0976310729 24.7071068.292893219 25.0976311.683417511 25.0976311 1.31658249 24.7071068 1.70710678 24.213657 2.20055655 24 2.62787058 24 3 24 3.57228574 24.1874079 3.97833627 24.8320503 4.9452998 25.6874079 6.22833627 26 6.90561907 26 8 26 8.96120391 25.5469904 9.86722321 24.7071068 10.7071068 24.3165825 11.0976311 23.6834175 11.0976311 23.2928932 10.7071068 22.9023689 10.3165825 22.9023689 9.68341751 23.2928932 9.29289322 23.786343 8.79944345 24 8.37212942 24 8 24 7.42771426 23.8125921 7.02166373 23.1679497 6.0547002 22.3125921 4.77166373 22 4.09438093 22 3 22 2.03879609 22.4530096 1.13277679 23.2928932.292893219zM11.2928932.292893219C11.6834175-.0976310729 12.3165825-.0976310729 12.7071068.292893219 13.0976311.683417511 13.0976311 1.31658249 12.7071068 1.70710678 12.213657 2.20055655 12 2.62787058 12 3 12 3.57228574 12.1874079 3.97833627 12.8320503 4.9452998 13.6874079 6.22833627 14 6.90561907 14 8 14 8.96120391 13.5469904 9.86722321 12.7071068 10.7071068 12.3165825 11.0976311 11.6834175 11.0976311 11.2928932 10.7071068 10.9023689 10.3165825 10.9023689 9.68341751 11.2928932 9.29289322 11.786343 8.79944345 12 8.37212942 12 8 12 7.42771426 11.8125921 7.02166373 11.1679497 6.0547002 10.3125921 4.77166373 10 4.09438093 10 3 10 2.03879609 10.4530096 1.13277679 11.2928932.292893219z"></path><path fill="#FFFFFF" fill-rule="nonzero" d="M11 22.618034L11 27 17 27 17 22.618034 14 21.118034 11 22.618034zM18.4472136 21.1055728C18.7859976 21.2749648 19 21.6212279 19 22L19 28C19 28.5522847 18.5522847 29 18 29L10 29C9.44771525 29 9 28.5522847 9 28L9 22C9 21.6212279 9.21400238 21.2749648 9.5527864 21.1055728L13 19.381966 13 15C13 14.4477153 13.4477153 14 14 14 14.5522847 14 15 14.4477153 15 15L15 19.381966 18.4472136 21.1055728zM11.236068 36C10.8572959 36 10.5110328 36.2140024 10.3416408 36.5527864L9.61803399 38 26.381966 38 25.6583592 36.5527864C25.4889672 36.2140024 25.1427041 36 24.763932 36L11.236068 36zM11.236068 34L24.763932 34C25.9002482 34 26.9390376 34.6420071 27.4472136 35.6583592L28.1708204 37.1055728C28.6647989 38.0935298 28.2643502 39.2948759 27.2763932 39.7888544 26.9986823 39.9277098 26.6924562 40 26.381966 40L9.61803399 40C8.51346449 40 7.61803399 39.1045695 7.61803399 38 7.61803399 37.6895098 7.69032417 37.3832837 7.82917961 37.1055728L8.5527864 35.6583592C9.06096245 34.6420071 10.0997518 34 11.236068 34z"></path><path d="M0 0H40V40H0z" fill="none"></path></g></svg>