<svg xmlns:xlink="http://www.w3.org/1999/xlink" xmlns="http://www.w3.org/2000/svg" width="40" height="40" viewBox="0 0 40 40"><g fill="none" fill-rule="evenodd"><path fill="#FFFFFF" fill-rule="nonzero" d="M4,17 C4,15.8954305 4.8954305,15 6,15 L9.76923077,15 C10.8738003,15 11.7692308,15.8954305 11.7692308,17 L11.7692308,18.8888889 C11.7692308,19.4411736 12.216946,19.8888889 12.7692308,19.8888889 L27.2307692,19.8888889 C27.783054,19.8888889 28.2307692,19.4411736 28.2307692,18.8888889 L28.2307692,17 C28.2307692,15.8954305 29.1261997,15 30.2307692,15 L34,15 C35.1045695,15 36,15.8954305 36,17 L36,35 C36,37.209139 34.209139,39 32,39 L8,39 C5.790861,39 4,37.209139 4,35 L4,17 Z M6,17 L6,35 C6,36.1045695 6.8954305,37 8,37 L32,37 C33.1045695,37 34,36.1045695 34,35 L34,17 L30.2307692,17 L30.2307692,18.8888889 C30.2307692,20.5457431 28.8876235,21.8888889 27.2307692,21.8888889 L12.7692308,21.8888889 C11.1123765,21.8888889 9.76923077,20.5457431 9.76923077,18.8888889 L9.76923077,17 L6,17 Z"></path><rect width="22" height="2" x="9" y="33" fill="#FFFFFF" rx="1"></rect><rect width="4" height="2" x="9" y="24" fill="#FFFFFF" rx="1"></rect><rect width="4" height="2" x="15" y="24" fill="#FFFFFF" rx="1"></rect><rect width="4" height="2" x="12" y="28" fill="#FFFFFF" rx="1"></rect><rect width="4" height="2" x="21" y="24" fill="#FFFFFF" rx="1"></rect><rect width="4" height="2" x="18" y="28" fill="#FFFFFF" rx="1"></rect><rect width="4" height="2" x="27" y="24" fill="#FFFFFF" rx="1"></rect><rect width="4" height="2" x="24" y="28" fill="#FFFFFF" rx="1"></rect><path fill="#FFFFFF" fill-rule="nonzero" d="M2 19L5 19C5.55228475 19 6 19.4477153 6 20L6 24C6 24.5522847 5.55228475 25 5 25L2 25C1.44771525 25 1 24.5522847 1 24L1 20C1 19.4477153 1.44771525 19 2 19zM35 19L38 19C38.5522847 19 39 19.4477153 39 20L39 24C39 24.5522847 38.5522847 25 38 25L35 25C34.4477153 25 34 24.5522847 34 24L34 20C34 19.4477153 34.4477153 19 35 19zM9 17C7.8954305 17 7 16.1045695 7 15L7 3C7 1.8954305 7.8954305 1 9 1L31 1C32.1045695 1 33 1.8954305 33 3L33 15C33 16.1045695 32.1045695 17 31 17L31 3 9 3 9 17z"></path><path d="M0 0H40V40H0z" fill="none"></path></g></svg>