<svg xmlns:xlink="http://www.w3.org/1999/xlink" xmlns="http://www.w3.org/2000/svg" width="22" height="22" viewBox="0 0 22 22"><g fill="none" fill-rule="evenodd"><path fill="#FFFFFF" fill-rule="nonzero" d="M18.192 4.589a1 1 0 1 1 1.616-1.178C21.275 5.425 22 7.964 22 11c0 3.036-.725 5.575-2.192 7.589a1 1 0 1 1-1.616-1.178C19.392 15.762 20 13.635 20 11s-.608-4.762-1.808-6.411z"></path><path fill="#FFFFFF" fill-rule="nonzero" d="M15.16 7.542a1 1 0 1 1 1.68-1.084C17.62 7.666 18 9.186 18 11c0 1.814-.38 3.334-1.16 4.542a1 1 0 1 1-1.68-1.084c.553-.858.84-2.005.84-3.458 0-1.453-.287-2.6-.84-3.458zM4.586 6l4.62-4.62A2.222 2.222 0 0 1 13 2.95v16.1a2.222 2.222 0 0 1-3.794 1.57L4.586 16H2.222A2.222 2.222 0 0 1 0 13.778V8.222C0 6.995.995 6 2.222 6h2.364zm1.121 1.707A1 1 0 0 1 5 8H2.222C2.1 8 2 8.1 2 8.222v5.556c0 .123.1.222.222.222H5a1 1 0 0 1 .707.293l4.914 4.913A.222.222 0 0 0 11 19.05V2.951a.222.222 0 0 0-.38-.157L5.708 7.707z"></path><path d="M0 0h22v22H0z" fill="none"></path></g></svg>